# Blender v3.0.0 OBJ File: ''
# www.blender.org
mtllib cross.mtl
o Cube_Cube.001
v 0.000000 0.050025 0.282843
v 0.000000 0.250025 0.282843
v -0.282843 0.050025 0.000000
v -0.282843 0.250025 0.000000
v 0.282843 0.050025 0.000000
v 0.282843 0.250025 0.000000
v 0.000000 0.050025 -0.282843
v 0.000000 0.250025 -0.282843
v 0.282843 0.250025 -0.565685
v 0.282843 0.050025 -0.565685
v 0.565685 0.050025 -0.282843
v 0.565685 0.250025 -0.282843
v 0.282843 0.050025 0.565685
v 0.282843 0.250025 0.565685
v 0.565685 0.250025 0.282843
v 0.565685 0.050025 0.282843
v -0.565685 0.050025 0.282843
v -0.282843 0.050025 0.565685
v -0.282843 0.250025 0.565685
v -0.565685 0.250025 0.282843
v -0.565685 0.250025 -0.282843
v -0.565685 0.050025 -0.282843
v -0.282843 0.050025 -0.565685
v -0.282843 0.250025 -0.565685
vt 0.625000 0.250000
vt 0.375000 0.250000
vt 0.375000 0.250000
vt 0.625000 0.250000
vt 0.875000 0.500000
vt 0.625000 0.500000
vt 0.625000 0.500000
vt 0.875000 0.500000
vt 0.625000 0.750000
vt 0.625000 0.750000
vt 0.625000 0.500000
vt 0.625000 0.000000
vt 0.375000 0.000000
vt 0.375000 0.000000
vt 0.625000 0.000000
vt 0.125000 0.500000
vt 0.375000 0.500000
vt 0.375000 0.750000
vt 0.125000 0.750000
vt 0.875000 0.750000
vt 0.375000 0.500000
vt 0.375000 0.750000
vt 0.375000 0.750000
vt 0.625000 0.750000
vt 0.625000 1.000000
vt 0.375000 1.000000
vt 0.125000 0.750000
vt 0.875000 0.750000
vt 0.375000 0.000000
vt 0.625000 0.000000
vt 0.875000 0.500000
vt 0.875000 0.750000
vt 0.125000 0.750000
vt 0.125000 0.500000
vt 0.375000 0.250000
vt 0.625000 0.250000
vt 0.375000 0.500000
vt 0.125000 0.500000
vn -0.7071 0.0000 -0.7071
vn 0.0000 1.0000 0.0000
vn -0.7071 0.0000 0.7071
vn 0.0000 -1.0000 0.0000
vn 0.7071 0.0000 -0.7071
vn 0.7071 0.0000 0.7071
usemtl None
s off
f 4/1/1 3/2/1 17/3/1 20/4/1
f 4/5/2 8/6/2 24/7/2 21/8/2
f 8/6/2 6/9/2 12/10/2 9/11/2
f 2/12/3 1/13/3 13/14/3 14/15/3
f 3/16/4 7/17/4 5/18/4 1/19/4
f 8/6/2 4/5/2 2/20/2 6/9/2
f 10/21/5 9/11/5 12/10/5 11/22/5
f 7/17/1 8/6/1 9/11/1 10/21/1
f 6/9/6 5/18/6 11/22/6 12/10/6
f 5/18/4 7/17/4 10/21/4 11/22/4
f 16/23/6 15/24/6 14/25/6 13/26/6
f 1/19/4 5/18/4 16/23/4 13/27/4
f 6/9/2 2/20/2 14/28/2 15/24/2
f 5/18/5 6/9/5 15/24/5 16/23/5
f 18/29/3 19/30/3 20/4/3 17/3/3
f 1/13/6 2/12/6 19/30/6 18/29/6
f 2/20/2 4/5/2 20/31/2 19/32/2
f 3/16/4 1/19/4 18/33/4 17/34/4
f 22/35/1 21/36/1 24/7/1 23/37/1
f 3/2/3 4/1/3 21/36/3 22/35/3
f 8/6/5 7/17/5 23/37/5 24/7/5
f 7/17/4 3/16/4 22/38/4 23/37/4
