# Blender v2.93.5 OBJ File: ''
# www.blender.org
mtllib ship_bow.mtl
o Cube_Cube.001
v -1.000000 0.000000 0.273095
v -1.000000 1.055617 0.527809
v -1.000000 0.000000 -0.273095
v -1.000000 1.055617 -0.527809
v 0.127553 0.000000 0.072236
v -0.167333 1.055617 0.131591
v 0.127553 0.000000 -0.072236
v -0.167333 1.055617 -0.131591
vt 0.375000 0.000000
vt 0.625000 0.000000
vt 0.625000 0.250000
vt 0.375000 0.250000
vt 0.875000 0.500000
vt 0.625000 0.500000
vt 0.375000 0.500000
vt 0.625000 0.750000
vt 0.375000 0.750000
vt 0.875000 0.750000
vt 0.125000 0.750000
vt 0.125000 0.500000
vn -1.0000 0.0000 0.0000
vn 0.4198 -0.2129 -0.8823
vn 0.9631 0.2690 0.0000
vn 0.4198 -0.2129 0.8823
vn 0.0000 -1.0000 0.0000
vn 0.0000 1.0000 0.0000
vn 0.1754 -0.0064 0.9845
vn 0.1754 -0.0064 -0.9845
usemtl None
s off
f 1/1/1 2/2/1 4/3/1 3/4/1
f 3/4/2 4/5/2 8/6/2
f 7/7/3 8/6/3 6/8/3 5/9/3
f 2/10/4 1/11/4 6/8/4
f 3/12/5 7/7/5 5/9/5 1/11/5
f 8/6/6 4/5/6 2/10/6 6/8/6
f 6/8/7 1/11/7 5/9/7
f 7/7/8 3/4/8 8/6/8
